<svg xmlns="http://www.w3.org/2000/svg" width="1071.226655" height="221.615993" viewBox="132.863996 88.562619 1071.226655 221.615993" fill="#175cf7">
  <defs>
    <circle id="ring" r="49.8578" fill="none" stroke="#175cf7" stroke-width="33.2386"/>
    <rect id="short" width="33.2416" height="132.9667"/>
    <rect id="long" width="33.2416" height="177.2884"/>
    <path id="R" d="M64 0H188V267H289C370 267 397 246 403 171L418 0H542L525 200C518 276 483 315 412 328C480 350 533 411 533 497C533 629 441 710 289 710H64ZM188 381V596H286C363 596 405 558 405 489C405 420 363 381 286 381Z"/>
    <path id="E" d="M86 0H534V114H210V301H514V411H210V596H526V710H86Z"/>
    <path id="S" d="M307 -16C461 -16 558 64 558 187C558 301 501 365 336 410C217 442 183 465 183 522C183 578 227 614 294 614C369 614 411 564 422 486L548 492C535 636 449 726 299 726C147 726 57 642 57 515C57 401 121 351 265 312C398 275 432 243 432 185C432 127 388 96 313 96C232 96 181 146 168 243L42 236C54 81 150 -16 307 -16Z"/>
    <path id="A" d="M21 0H148L193 168H407L452 0H579L377 710H223ZM300 570 378 279H222Z"/>
    <path id="C" d="M304 -16C442 -16 536 82 561 250L434 255C418 151 368 96 304 96C212 96 162 189 162 354C162 520 212 614 304 614C365 614 412 563 430 467L557 473C530 634 437 726 304 726C131 726 34 583 34 354C34 126 131 -16 304 -16Z"/>
    <path id="H" d="M52 0H176V300H424V0H548V710H424V414H176V710H52Z"/>
    <path id="I" d="M76 0H524V114H362V596H524V710H76V596H238V114H76Z"/>
    <path id="N" d="M66 0H186V510L401 0H534V710H414V200L199 710H66Z"/>
    <path id="T" d="M238 0H362V596H560V710H40V596H238Z"/>
    <path id="U" d="M300 -16C453 -16 544 79 544 246V710H420V238C420 147 378 96 300 96C222 96 180 147 180 238V710H56V246C56 79 147 -16 300 -16Z"/>
  </defs>
  <g>
    <use href="#short" x="132.883" y="132.8893"/>
    <use href="#long" x="289.7089" y="88.5676"/>
    <use href="#short" x="351.3661" y="132.8893"/>
    <use href="#short" x="511.3196" y="132.8893"/>
    <use href="#long" x="569.8494" y="132.8893"/>
    <use href="#ring" x="250.2119" y="199.3585"/>
    <use href="#ring" x="471.8226" y="199.3722"/>
    <use href="#ring" x="642.5875" y="199.3722"/>
  </g>
  <g transform="matrix(.0766485 0 0 -.0766485 770.6491 187.3097)">
    <use href="#R"/>
    <use href="#E" x="639.964"/>
    <use href="#S" x="1279.929"/>
    <use href="#E" x="1919.893"/>
    <use href="#A" x="2559.857"/>
    <use href="#R" x="3199.821"/>
    <use href="#C" x="3839.786"/>
    <use href="#H" x="4479.75"/>
  </g>
  <g transform="matrix(.0766485 0 0 -.0766485 769.7293 265.8559)">
    <use href="#I"/>
    <use href="#N" x="653.011"/>
    <use href="#S" x="1292.975"/>
    <use href="#T" x="1932.939"/>
    <use href="#I" x="2572.904"/>
    <use href="#T" x="3212.868"/>
    <use href="#U" x="3852.832"/>
    <use href="#T" x="4492.796"/>
    <use href="#E" x="5132.761"/>
  </g>
</svg>
